Coordinates
version=1
nRows=11
nColumns=63
inDegrees=yes

Units are S.I. units (second, meters, Newtons, ...)
If the header above contains a line with 'inDegrees', this indicates whether rotational values are in degrees (yes) or radians (no).

endheader
time	pelvis_tilt	pelvis_list	pelvis_rotation	pelvis_tx	pelvis_ty	pelvis_tz	hip_flexion_r	hip_adduction_r	hip_rotation_r	knee_angle_r	knee_angle_r_beta	ankle_angle_r	subtalar_angle_r	mtp_angle_r	hip_flexion_l	hip_adduction_l	hip_rotation_l	knee_angle_l	knee_angle_l_beta	ankle_angle_l	subtalar_angle_l	mtp_angle_l	L5_S1_Flex_Ext	L5_S1_Lat_Bending	L5_S1_axial_rotation	L4_L5_Flex_Ext	L4_L5_Lat_Bending	L4_L5_axial_rotation	L3_L4_Flex_Ext	L3_L4_Lat_Bending	L3_L4_axial_rotation	L2_L3_Flex_Ext	L2_L3_Lat_Bending	L2_L3_axial_rotation	L1_L2_Flex_Ext	L1_L2_Lat_Bending	L1_L2_axial_rotation	L1_T12_Flex_Ext	L1_T12_Lat_Bending	L1_T12_axial_rotation	Abs_r3	Abs_r2	Abs_r1	Abs_t1	Abs_t2	neck_flexion	neck_bending	neck_rotation	arm_flex_r	arm_add_r	arm_rot_r	elbow_flex_r	pro_sup_r	wrist_flex_r	wrist_dev_r	arm_flex_l	arm_add_l	arm_rot_l	elbow_flex_l	pro_sup_l	wrist_flex_l	wrist_dev_l
0.000000	-1.142080	-4.072940	92.279060	0.026750	0.839483	0.721053	10.073568	-3.298939	1.374632	17.997140	0.314109	35.557922	-3.784077	0.000000	6.340792	3.701814	-1.030642	9.724458	0.169724	34.407000	-2.670395	0.000000	0.111279	-0.275666	2.260646	0.206657	-0.366636	2.401937	0.182821	-0.670254	2.401937	0.127181	-0.670254	1.978065	0.103334	-0.562138	1.836775	0.063585	-0.427006	1.695485	0.794857	-3.118387	12.573036	0.000000	0.000000	26.976689	-0.595590	-10.031238	3.692890	-12.306384	33.037050	56.549148	88.390247	21.656990	-7.794656	22.740622	-13.729149	71.439824	54.004751	75.376085	21.001721	-7.188649
0.016949	-1.096351	-4.111216	92.649277	0.025842	0.838865	0.721519	10.614955	-3.328170	1.993180	18.810727	0.328309	35.959236	-4.596426	0.000000	6.531868	3.629813	-2.105366	10.053981	0.175475	34.988917	-1.027222	0.000000	0.110070	-0.263759	2.211673	0.204412	-0.350799	2.349902	0.180835	-0.641303	2.349902	0.125799	-0.641303	1.935214	0.102211	-0.537857	1.796984	0.062894	-0.408563	1.658755	0.786222	-2.983693	12.300660	0.000000	0.000000	26.990731	-0.651328	-10.000156	3.058312	-12.672116	32.841447	57.232872	88.226888	21.296995	-7.556240	21.938225	-13.528441	69.541089	54.175693	76.648139	22.062363	-7.109983
0.033898	-1.038623	-4.137051	93.048602	0.025012	0.838407	0.721787	10.994540	-3.352809	2.323503	19.404727	0.338676	36.304467	-5.133809	0.000000	6.677180	3.553003	-2.920744	10.325070	0.180206	35.469413	0.371628	0.000000	0.109866	-0.250995	2.153354	0.204032	-0.333824	2.287939	0.180498	-0.610270	2.287939	0.125566	-0.610270	1.884185	0.102021	-0.511830	1.749600	0.062777	-0.388792	1.615016	0.784760	-2.839310	11.976310	0.000000	0.000000	27.021970	-0.742169	-9.915705	2.536900	-12.943480	32.587188	57.838068	88.100253	20.998803	-7.156014	21.235032	-13.370523	67.925106	54.365935	77.664540	22.747106	-7.000470
0.050847	-0.970759	-4.151650	93.471129	0.024256	0.838095	0.721882	11.228077	-3.373286	2.396547	19.800277	0.345580	36.597218	-5.424460	0.000000	6.781429	3.472565	-3.501499	10.543271	0.184015	35.856986	1.544883	0.000000	0.110489	-0.237582	2.087262	0.205190	-0.315984	2.217716	0.181523	-0.577657	2.217716	0.126278	-0.577657	1.826354	0.102601	-0.484477	1.695900	0.063134	-0.368014	1.565446	0.789215	-2.687573	11.608724	0.000000	0.000000	27.066864	-0.861018	-9.785581	2.117725	-13.129835	32.283211	58.369029	88.006327	20.757730	-6.620817	20.624875	-13.251576	66.569971	54.570959	78.449694	23.102356	-6.865277
0.067797	-0.894623	-4.156218	93.910951	0.023571	0.837913	0.721824	11.331323	-3.390033	2.243262	20.018517	0.349389	36.841089	-5.496612	0.000000	6.849313	3.389680	-3.872356	10.714127	0.186997	36.160135	2.511274	0.000000	0.111766	-0.223725	2.014967	0.207560	-0.297554	2.140902	0.183620	-0.543964	2.140902	0.127737	-0.543964	1.763096	0.103786	-0.456219	1.637160	0.063863	-0.346549	1.511225	0.798333	-2.530818	11.206641	0.000000	0.000000	27.121872	-1.000781	-9.617477	1.789859	-13.240539	31.938452	58.830048	87.941093	20.569088	-5.977489	20.101589	-13.167782	65.453783	54.786248	79.028007	23.174517	-6.709573
0.084746	-0.812080	-4.151960	94.362161	0.022951	0.837846	0.721637	11.320033	-3.403481	1.894594	20.080585	0.350472	37.039682	-5.378498	0.000000	6.885532	3.305530	-4.058039	10.843184	0.189249	36.387359	3.289526	0.000000	0.113519	-0.209630	1.938040	0.210817	-0.278808	2.059167	0.186501	-0.509695	2.059167	0.129741	-0.509695	1.695785	0.105414	-0.427478	1.574657	0.064865	-0.324717	1.453530	0.810856	-2.371379	10.778797	0.000000	0.000000	27.183452	-1.154364	-9.419090	1.542373	-13.284948	31.561851	59.225418	87.900537	20.428193	-5.252870	19.659005	-13.115322	64.554639	55.007285	79.423885	23.009998	-6.538526
0.101695	-0.724992	-4.140080	94.818852	0.022395	0.837881	0.721342	11.209964	-3.414063	1.381491	20.007621	0.349199	37.196599	-5.098350	0.000000	6.894784	3.221296	-4.083270	10.935985	0.190869	36.547156	3.898370	0.000000	0.115574	-0.195505	1.858053	0.214632	-0.260022	1.974181	0.189876	-0.475351	1.974181	0.132089	-0.475351	1.625796	0.107322	-0.398674	1.509668	0.066039	-0.302837	1.393540	0.825531	-2.211591	10.333932	0.000000	0.000000	27.248063	-1.314671	-9.198115	1.364336	-13.272421	31.162345	59.559431	87.880643	20.330358	-4.473800	19.290956	-13.090378	63.850637	55.229552	79.661733	22.655202	-6.357304
0.118644	-0.635225	-4.121784	95.275117	0.021898	0.838001	0.720962	11.016871	-3.422207	0.734901	19.820763	0.345938	37.315441	-4.684404	0.000000	6.881771	3.138159	-3.972774	10.998074	0.191953	36.648027	4.356533	0.000000	0.117754	-0.181555	1.776576	0.218680	-0.241469	1.887612	0.193457	-0.441434	1.887612	0.134581	-0.441434	1.554504	0.109346	-0.370228	1.443468	0.067284	-0.281229	1.332432	0.841102	-2.053791	9.880783	0.000000	0.000000	27.312163	-1.474610	-8.962246	1.244820	-13.212315	30.748871	59.836382	87.877396	20.270898	-3.667119	18.991275	-13.089130	63.319876	55.448533	79.765956	22.156537	-6.171074
0.135593	-0.544642	-4.098276	95.725049	0.021457	0.838193	0.720519	10.756510	-3.428347	-0.014229	19.541151	0.341057	37.399810	-4.164891	0.000000	6.851190	3.057300	-3.751275	11.034998	0.192597	36.698469	4.682743	0.000000	0.119883	-0.167988	1.695181	0.222635	-0.223424	1.801130	0.196956	-0.408446	1.801130	0.137014	-0.408446	1.483283	0.111323	-0.342561	1.377335	0.068501	-0.260213	1.271386	0.856313	-1.900312	9.428088	0.000000	0.000000	27.372210	-1.627086	-8.719179	1.172896	-13.113987	30.330369	60.060563	87.886780	20.245128	-2.859666	18.753795	-13.107760	62.940453	55.659709	79.760962	21.560408	-5.985006
0.152542	-0.455107	-4.070761	96.162743	0.021067	0.838441	0.720036	10.444637	-3.432914	-0.834950	19.189923	0.334927	37.453307	-3.568045	0.000000	6.807741	2.979901	-3.443496	11.052299	0.192899	36.706982	4.895729	0.000000	0.121787	-0.155009	1.615439	0.226170	-0.206162	1.716404	0.200083	-0.376888	1.716404	0.139190	-0.376888	1.413509	0.113091	-0.316094	1.312544	0.069589	-0.240109	1.211579	0.869909	-1.753490	8.984586	0.000000	0.000000	27.424664	-1.765004	-8.476608	1.137634	-12.986796	29.915775	60.236267	87.904780	20.248361	-2.078281	18.572349	-13.142450	62.690466	55.858564	79.671155	20.913221	-5.804267
0.169492	-0.368484	-4.040444	96.582290	0.020726	0.838729	0.719535	10.097008	-3.436338	-1.696316	18.788218	0.327916	37.479535	-2.922099	0.000000	6.756123	2.907142	-3.074162	11.055523	0.192955	36.682064	5.014219	0.000000	0.123288	-0.142825	1.538921	0.228958	-0.189957	1.635103	0.202550	-0.347264	1.635103	0.140906	-0.347264	1.346555	0.114485	-0.291248	1.250373	0.070447	-0.221235	1.154190	0.880634	-1.615660	8.559014	0.000000	0.000000	27.465982	-1.881270	-8.242229	1.128106	-12.840099	29.514028	60.367787	87.927380	20.275911	-1.349805	18.440770	-13.189380	62.548013	56.040580	79.520941	20.261382	-5.634025
